<svg id="svg-source" height="0" version="1.1" 
  xmlns="http://www.w3.org/2000/svg" style="position:absolute; margin-left: -100%" 
  xmlns:xlink="http://www.w3.org/1999/xlink">
  <g id="map" data-iconmelon="Jolly Icons:32f7fb55c65f36624fc5d78182b44f53">
    <g>
      <path fill-rule="evenodd" clip-rule="evenodd" d="M4.94,18.76c0.521-0.178,0.936-0.463,0.954-1.145
		c-0.571-0.484-1.436,0.068-1.432,0.764C4.653,18.475,4.614,18.801,4.94,18.76z"></path>
      <path fill-rule="evenodd" clip-rule="evenodd" d="M7.517,16.566c0.235-0.369,0.657-0.551,0.668-1.146
		c-0.17-0.084-0.243-0.266-0.572-0.19c-0.516,0.44-1.3,0.609-1.337,1.527C6.648,17.196,7.202,16.752,7.517,16.566z"></path>
      <path fill-rule="evenodd" clip-rule="evenodd" d="M10.38,13.99c0.449-0.124,0.636-0.51,0.763-0.955
		c-0.154-0.133-0.234-0.338-0.572-0.287c-0.595,0.378-1.966,0.829-1.337,1.814C9.845,14.601,10.118,14.3,10.38,13.99z"></path>
      <path fill-rule="evenodd" clip-rule="evenodd" d="M0.36,26.872c0.055,0.741-0.115,1.706,0.097,2.291
		c0.024,0.196,0.254,0.191,0.381,0.286c0.236-0.124,0.462,0.214,0.477,0c0.218,0.26,0.172,0.783,0.764,0.669
		c0.605,0.097,0.73-0.288,1.05-0.479c0.296-0.214,0.549-0.467,0.764-0.762c0.608-0.41,1.062-0.974,1.621-1.432
		c0.537-0.481,1.062-0.975,1.624-1.431c0.287-0.222,0.593-0.425,0.858-0.668c0.387-0.121,0.554-0.466,0.954-0.573
		c1.319,0.652,2.426,1.518,3.722,2.195c0.613,0.372,1.233,0.739,1.717,1.241c0.372,0.105,0.691,0.263,0.954,0.476
		c0.281-0.024,0.294,0.217,0.574,0.192c-0.044,0.298,0.203,0.304,0.475,0.286c0.732-0.288,1.284-0.753,1.815-1.241
		c0.603-0.414,1.21-0.824,1.718-1.336c0.744-0.273,1.086-0.95,1.812-1.24c0.214-0.297,0.643-0.376,0.859-0.669
		c0.335-0.173,0.553-0.463,0.954-0.572c1.289,0.842,2.185,2.077,3.341,3.054c0.33,0.178,0.439,0.575,0.857,0.668
		c0.259,0.282,0.441,0.641,0.859,0.764c0.312,0.228,0.32,0.761,0.858,0.764c0.359,0.181,0.438,0.645,1.05,0.573
		c0.371-0.18,0.484-0.485,0.572-0.955c0.093-0.491-0.069-1.031,0-1.527c0.154-0.355,0.311-0.708,0.383-1.146
		c0.508-4.231,0.162-9.315,0.382-13.837c0.172-0.642,0.09-1.508,0.096-2.29c0.003-0.804,0.115-1.602,0-2.195
		c-0.123-0.452-0.436-0.71-0.764-0.954c-0.38-0.225-0.634-0.575-1.051-0.764c-0.198-0.262-0.696-0.416-0.858-0.572
		c-0.081-0.078-0.081-0.028-0.191-0.095c-0.377-0.229-0.713-0.527-1.145-0.668c-0.601-0.577-1.344-1.009-2.004-1.527
		c-0.39-0.183-0.746-0.399-1.049-0.667c-0.4-0.207-0.511-0.699-1.051-0.765c-0.006-0.058-0.015-0.112-0.095-0.095
		c-0.13,0.03-0.184,0.136-0.382,0.095c-0.718,0.429-1.226,1.065-1.909,1.527c-0.834,0.534-1.667,1.068-2.48,1.623
		c-0.431,0.239-0.748,0.589-1.241,0.764c-0.114,0.235-0.328,0.373-0.573,0.477c-0.203,0.097-0.354,0.493-0.572,0.286
		c-1.198-0.519-2.154-1.281-3.244-1.908c-0.427-0.433-1.15-0.567-1.623-0.955c-0.685-0.206-1.146-0.636-2.004-0.669
		C9.102,3.072,8.837,3.382,8.28,3.396c-2.406,1.601-5.331,2.686-7.823,4.2c-0.13,0.347-0.124,0.831-0.383,1.049
		c-0.128,1.497-0.064,3.06,0,4.581C0.254,17.519-0.246,22.433,0.36,26.872z M2.078,28.59c-0.05-0.05,0.069-0.122,0.096-0.095
		C2.221,28.544,2.104,28.616,2.078,28.59z M2.173,9.027C2.316,8.916,2.564,8.908,2.651,8.74C3.06,8.609,3.279,8.287,3.699,8.168
		c0.688-0.396,1.281-0.883,2.005-1.24c0.625-0.457,1.476-0.688,2.1-1.146c0.481-0.058,0.593-0.488,1.146-0.477
		c0.312-0.197,0.6-0.419,0.954-0.572c0.967,0.718,2.067,1.304,3.054,2.003c0.486,0.372,1.078,0.64,1.527,1.05
		c0.562,0.264,0.885,0.769,1.526,0.954c0.909-0.109,1.521-0.514,2.099-0.954c0.601-0.419,1.247-0.789,1.814-1.24
		c1.269-0.734,2.289-1.719,3.53-2.48c0.07-0.09,0.173-0.146,0.287-0.192c0.573,0.477,1.066,1.033,1.812,1.337
		c0.641,0.41,1.271,0.829,2.005,1.145c0.345,0.482,0.855,0.798,1.337,1.146c0.404,0.391,0.824,0.765,1.336,1.05
		c-0.091,1.387-0.206,2.823-0.287,4.294c-0.236,4.274,0.03,9.145-0.191,13.552c-1.271-0.541-2.194-1.432-3.34-2.1
		c-1.244-0.537-1.982-1.58-3.34-2.003c-0.805,0.148-1.189,0.72-1.813,1.049c-0.467,0.456-1.104,0.741-1.525,1.241
		c-1.157,0.721-2.115,1.639-3.15,2.481c-0.368-0.076-0.424-0.466-0.667-0.667c-0.174-0.272-0.544-0.349-0.669-0.668
		c-0.759-0.324-1.259-0.905-2.1-1.146c-0.724-0.357-1.411-0.751-2.195-1.05c-0.22-0.288-0.598-0.421-0.763-0.764
		c-0.298-0.179-0.526-0.429-0.955-0.477c-0.629-0.058-1.012,0.133-1.336,0.381c-0.164,0.376-0.693,0.388-0.857,0.764
		c-0.344,0.196-0.516,0.566-0.86,0.763c-0.259,0.282-0.441,0.64-0.858,0.764c-0.474,0.608-1.115,1.047-1.527,1.717
		c-0.309,0.231-0.5,0.583-0.764,0.859c-0.064,0.222-0.315,0.256-0.38,0.477c-0.112,0.028-0.276,0.542-0.287,0.097
		c0.275-0.375-0.116-0.9-0.096-1.337C2.167,20.899,1.991,15.094,1.697,9.409C1.675,9.102,2.036,9.176,2.173,9.027z"></path>
      <path fill-rule="evenodd" clip-rule="evenodd" d="M13.242,16.375c0.021-0.075,0.08-0.111,0.192-0.095
		c0.337-0.364,0.028-0.987-0.287-1.241c-0.021-0.232-0.261-0.43-0.382-0.572C12.614,14.29,12.488,14,12.193,13.99
		c-0.326-0.042-0.287,0.285-0.478,0.381c0.058,0.515,0.409,0.736,0.573,1.145C12.597,15.812,12.688,16.325,13.242,16.375z"></path>
      <path fill-rule="evenodd" clip-rule="evenodd" d="M17.728,18.666c0.344-0.452,1.082-0.508,1.049-1.336
		c-0.074-0.022-0.109-0.08-0.095-0.191c-0.18-0.076-0.349-0.16-0.573-0.19c-0.015,0.11-0.149,0.103-0.285,0.095
		c-0.342,0.317-0.812,0.631-1.146,0.859c-0.033,0.023-0.069,0.158-0.096,0.191c-0.025,0.031-0.165-0.032-0.192,0
		c-0.035,0.046-0.078,0.249-0.094,0.286c-0.049,0.122-0.122,0.188-0.095,0.381C16.506,19.429,17.39,19.022,17.728,18.666z"></path>
      <path fill-rule="evenodd" clip-rule="evenodd" d="M20.973,12.749c0.253,0.071,0.656-0.053,0.953,0
		c0.595-0.168,1.16-0.367,1.814-0.477c0.453,0.373,0.644,1.008,0.953,1.526c0.355,0.472,0.434,1.221,1.432,1.049
		c0.112-0.175,0.25-0.323,0.382-0.477c-0.161-1.047-0.808-1.61-1.145-2.481c0.524-0.048,0.851-0.294,1.336-0.382
		c0.447-0.124,0.857-0.287,0.858-0.858c-0.318-1.31-1.949-0.252-2.863-0.191c-0.533-0.548-0.661-1.501-1.335-1.909
		c-0.577-0.004-0.66,0.486-0.764,0.954c0.059,0.64,0.406,0.992,0.571,1.528c-0.532,0.229-1.138,0.388-1.908,0.381
		c-0.246,0.327-0.794,0.351-0.764,0.954C20.639,12.543,20.706,12.675,20.973,12.749z"></path>
      <path fill-rule="evenodd" clip-rule="evenodd" d="M19.636,16.757c0.457,0.196,0.833-0.24,1.146-0.477
		c0.343-0.294,0.729-0.543,0.763-1.145c-0.57-0.713-1.379,0.171-1.812,0.477c-0.06,0.355-0.392,0.437-0.287,0.955
		C19.552,16.585,19.594,16.671,19.636,16.757z"></path>
      <path fill-rule="evenodd" clip-rule="evenodd" d="M15.341,18.855c0.119-0.564-0.209-0.681-0.382-0.954
		c-0.328-0.116-0.318-0.572-0.857-0.477h-0.191c-0.109,0.113-0.108,0.338-0.096,0.572C14.113,18.475,14.661,19.352,15.341,18.855z"></path>
      <path fill-rule="evenodd" clip-rule="evenodd" d="M22.976,12.653c-0.389,0.451-1.434,0.712-1.05,1.622
		c0.456,0.238,0.705-0.227,1.05-0.381c0.275-0.266,0.695-0.387,0.573-1.05C23.349,12.789,23.277,12.608,22.976,12.653z"></path>
    </g>
  </g>
  <g id="pin" data-iconmelon="Jolly Icons:a52584161303ae2bc638385ebb2ff4fe">
    <path fill-rule="evenodd" clip-rule="evenodd" d="M24.268,15.065c0-0.416-0.207-0.624-0.207-1.039
	c-0.165-0.287-0.395-0.508-0.625-0.728c-0.705-0.252-1.368,0.056-2.181,0c-0.666-1.932-1.151-4.044-1.663-6.129V6.338
	c0.089-0.243-0.363-0.448-0.104-0.52c0.974-0.135,1.686-0.531,2.285-1.039c0.023-0.08,0.003-0.205,0.104-0.208
	c0.332-0.908,0.327-2.752-0.104-3.533C21.387,0.628,20.926,0.294,20.423,0h-1.558c-0.944,0.337-2.331,0.231-3.324,0.52
	c-1.523-0.068-2.731,0.178-4.261,0.104c-0.196,0.115-0.364,0.259-0.624,0.312c-0.074,0.236-0.592,0.031-0.519,0.416
	C9.857,1.554,10.201,2.384,9.93,2.597v1.559c0.384,0.62,0.804,1.205,1.455,1.558c0.334-0.022,0.438,0.184,0.83,0.104
	c0.283,0.065,0.825-0.132,0.936,0.104c-0.525,2.418-1.301,4.587-1.247,7.584c-0.627-0.108-0.543,0.496-1.143,0.416
	c-0.045,0.232-0.513,0.042-0.728,0.104c-0.045,0.231-0.513,0.041-0.727,0.103c-0.65,0.459-1.229,0.99-1.768,1.56
	c0.014,0.705-0.179,1.205-0.104,1.974c0.122,0.018,0.113,0.164,0.104,0.312c0.369,0.637,0.633,1.377,1.248,1.767
	c1,0.205,2.435,0.128,3.325-0.104h1.246c0.349,0.066,0.965-0.134,1.143,0.104v1.662c0.271,1.912,0.572,3.792,0.728,5.818
	c0.137,0.936,0.19,1.957,0.52,2.701c0.192,0.917,0.292,1.925,1.246,2.079c1.108-0.103,0.791-1.633,0.832-2.805
	c0.189-1.926,0.33-4.328,0.104-6.338c0.204-0.938,0.062-2.225,0.104-3.325c1.536,0.047,2.928-0.051,4.26-0.208
	c0.731-0.444,1.628-0.727,2.077-1.455c0.059-0.185,0.054-0.431,0.208-0.519C24.585,16.479,24.599,15.599,24.268,15.065z
	 M11.281,2.39c0.11-0.098,0.032-0.384,0.312-0.312C11.481,2.175,11.559,2.461,11.281,2.39z M12.944,4.26
	c-0.162-0.152-0.092-0.532-0.104-0.831c0.044-0.356-0.312-0.312-0.416-0.52c-0.01-0.495,0.478-0.493,0.521-0.935
	c2.564,0.141,4.521-0.327,7.064-0.208c0.423,0.373,0.436,1.157,0.415,1.975c-0.415,0.173-0.919,0.257-1.351,0.416
	c-0.366-0.014-0.465-0.297-0.831-0.312C16.472,3.92,14.686,4.499,12.944,4.26z M17.93,12.155c-0.854,0.011-1.066,0.665-1.454,1.143
	c-0.325-0.232,0.204-0.48,0.207-0.727c0.153-0.263,0.368-0.464,0.416-0.831c-0.067-0.387-0.618-0.352-0.935-0.208
	c0.077-0.546,0.639-0.608,0.622-1.247c-0.031-0.557-0.622-0.555-1.245-0.519c0.064-0.583,0.764-1.003,0.414-1.662
	c-0.829,0.036-1.084,0.646-1.558,1.039c0.011,0.126-0.151,0.064,0,0c0.199-0.666,0.658-1.073,0.935-1.663
	c-0.48,0.039-0.588,0.45-1.039,0.52c0.104-0.555,0.062-1.253,0.312-1.662c1.287-0.133,2.768-0.071,3.947-0.312
	c-0.577,2.563,0.134,5.234,0.727,7.273h-1.662C17.771,12.966,17.975,12.685,17.93,12.155z M10.657,15.688
	c0.188,0.295-0.307,0.796-0.312,1.247C10.125,16.606,10.414,15.898,10.657,15.688z M16.58,23.688
	c-0.155-0.226-0.177-0.585-0.207-0.936c-0.109-0.237-0.067-0.626-0.208-0.831c-0.058-0.636-0.225-1.162-0.416-1.662v-0.624h0.935
	C16.721,21.059,16.657,22.379,16.58,23.688z M22.814,17.039c-2.409,0.016-4.68,0.17-7.169,0.104c-0.085-0.359,0.193-0.439,0-0.623
	c-0.518,0.002-0.544,0.495-0.832,0.727c-0.245-0.003-0.306,0.179-0.624,0.104c0.047,0.29-0.565-0.082-0.519,0.208
	c-0.338-0.439,0.268-1.283-0.104-1.766c-0.598-0.008-0.636,0.543-0.935,0.831c-0.069,0.277-0.044,0.649-0.209,0.831
	c0.079,0.426-0.335,0.358-0.622,0.416c-0.134-0.826,0.576-1.558,0.103-2.078c-0.718,0.116-0.785,0.793-0.935,1.247
	c-0.05,0.15-0.021,0.565-0.312,0.52c0.121-0.919,0.599-1.479,0.729-2.389h-0.312c0.011,0.125-0.152,0.063,0,0
	c0.021-0.117,0.114-0.162,0.207-0.208c1.279-0.189,2.609-0.103,4.052-0.103h4.156c0.422-0.008,0.501,0.329,0.935,0.312
	c0.472,0.056,0.624-0.209,0.937-0.312h1.142C22.603,15.586,22.927,16.094,22.814,17.039z"></path>
  </g>
  <g id="image" data-iconmelon="Jolly Icons:46d6047f49b36c6406522dcd9af1415a">
    <g>
      <path fill-rule="evenodd" clip-rule="evenodd" d="M25.396,24.984c-0.185-0.158-0.252-0.435-0.281-0.748
		c-0.883-0.863-1.247-2.245-2.245-2.993c-0.327-0.546-0.774-0.972-1.123-1.497c-0.389-0.483-0.381-1.365-1.216-1.402h-0.094
		c-0.138,0.048-0.235,0.139-0.374,0.188c-0.501,0.557-0.891,1.229-1.31,1.87c-0.496,0.596-0.836,1.347-1.403,1.871
		c-0.445-0.304-0.69-0.806-1.309-0.936c-0.56-0.06-1.298,0.044-1.497,0.093c-0.12,0.031-0.198,0.072-0.28,0.094
		c-0.239,0.06-0.249,0.119-0.374,0.188c-0.102,0.055-0.199,0.045-0.282,0.094c-0.825,0.487-1.248,1.131-1.59,1.963
		c-0.357-0.234-0.623-0.561-1.216-0.561C9.587,23.27,8.88,23.841,8.09,24.33c-0.635,0.643-1.451,1.105-1.683,2.151
		c0.225,0.216,0.143,0.302,0.093,0.654c1.174-0.026,2.361,0.241,3.46,0c4.214-0.212,9.047,0.192,12.815-0.468h1.871
		c0.229-0.176,0.458-0.353,0.842-0.374C25.397,25.918,25.373,25.473,25.396,24.984z M6.687,26.855
		c-0.083-0.301,0.31-0.129,0.282-0.374c0.3-0.083,0.129,0.308,0.374,0.28C7.302,26.971,6.881,26.8,6.687,26.855z M7.904,26.388
		c-0.354-0.099-0.274-0.423-0.094-0.655C8.019,25.773,7.848,26.194,7.904,26.388z M8.839,25.172
		c0.094-0.001,0.068-0.117,0.093-0.188c0.06-0.169,0.096-0.162,0.188-0.28c0.109-0.015,0.166,0.021,0.188,0.094
		c-0.05,0.673,0.027,1.22,0.187,1.684C8.664,26.655,8.858,25.807,8.839,25.172z M10.335,26.388
		c-0.222-0.059,0.015-0.575-0.186-0.655v-1.496c0.285,0.068,0.274-0.161,0.561-0.094C10.394,24.725,10.403,25.832,10.335,26.388z
		 M11.646,26.2c-0.417-0.082-0.24-0.758-0.281-1.216c-0.05-0.075-0.099-0.151-0.094-0.28c0.256-0.068,0.188,0.187,0.375,0.187
		C11.348,25.301,11.819,25.945,11.646,26.2z M12.487,25.546v-0.374c0.022-0.289,0.26-0.363,0.374-0.561
		c0.015-0.233-0.048-0.389-0.187-0.469c-0.028-0.216,0.271-0.104,0.281-0.28c0.219,0.023,0.054,0.411,0,0.468v1.028
		c0.072,0.24,0.093,0.53,0.28,0.655C12.85,26.361,12.564,25.815,12.487,25.546z M14.17,25.732
		C14.45,25.752,14.081,26.121,14.17,25.732c-0.465-0.346-0.396-1.225-0.562-1.87c0.017-0.234-0.142-0.292-0.28-0.374
		c0.262-0.331,0.569-0.615,1.028-0.749C14.011,23.553,13.919,24.82,14.17,25.732z M20.437,19.934
		c0.212,0.287,0.474,0.525,0.562,0.936c-0.581,0.199-0.889,0.67-1.216,1.122c-0.213-0.067-0.28-0.281-0.374-0.468
		C19.67,20.913,20.128,20.496,20.437,19.934z M20.531,24.891c-0.284,0.005-0.364-0.197-0.561-0.279
		c0.142-0.264,0.443-0.369,0.374-0.844c0.168-0.01,0.198,0.115,0.375,0.095C20.728,24.277,20.456,24.411,20.531,24.891z
		 M18.846,22.085c0.186,0.345,0.509,0.553,0.47,1.122c-0.185-0.064-0.25-0.249-0.281-0.468C18.94,22.541,18.62,22.322,18.846,22.085
		z M18.567,23.675c0.109,0.016,0.101,0.147,0.093,0.28c0.28,0.02-0.089,0.389,0,0C18.552,23.939,18.559,23.809,18.567,23.675
		c-0.203,0.017-0.042-0.331-0.094-0.468C18.676,23.191,18.516,23.539,18.567,23.675z M18.38,22.646
		c0.078-0.297,0.123,0.166,0.094,0.28C18.396,23.224,18.35,22.761,18.38,22.646z M21.841,25.826
		c-1.866,0.411-4.304,0.25-6.548,0.281c0.193-0.262-0.118-0.643-0.187-0.936c0.122-0.823-0.212-1.637,0-2.245
		c0.108-0.274-0.449-0.348-0.186-0.468c0.899-0.152,1.218,0.278,1.496,0.748c0.055,0.398-0.067,0.619-0.093,0.936
		c0.133,0.74,0.033,1.713,0.841,1.777c0.843-0.25,0.175-1.311,0.187-2.058c0.315-0.034,0.157,0.405,0.281,0.561
		c0.09,0.192,0.192,0.37,0.281,0.562c0.205,0.263,0.374,0.562,0.841,0.562c0.301-0.013,0.412-0.212,0.375-0.562
		c-0.113,0.01-0.059-0.136,0,0c0.337,0.225,0.531,0.592,1.029,0.654c0.294,0.045,0.382-0.116,0.468-0.28
		c0.303,0.055,0.435-0.063,0.655-0.093c0.078-0.233,0.122-0.501,0.093-0.843c0.14-0.142,0.151-0.41,0.188-0.655
		c0.128-0.13,0.201-0.461,0.093-0.561c-0.121-0.262-0.446,0.043-0.468,0.188c-0.278-0.002-0.317-0.243-0.561-0.281
		c0.124-0.686,0.438-1.184,0.655-1.776c0.305-0.025,0.199,0.362,0.467,0.374c-0.016,0.328,0.317,0.307,0.375,0.562
		c0.289,0.334,0.597,0.649,0.749,1.122c-0.839,0.034-0.847,0.9-1.216,1.403v0.654C21.626,25.617,22.094,25.742,21.841,25.826z
		 M23.337,25.639c-0.04,0.209-0.461,0.039-0.655,0.094c0.23-0.281,0.121-0.417,0.094-0.842c0.076-0.391,0.182-0.752,0.187-1.216
		c0.288,0.148,0.295,0.578,0.562,0.748C23.322,24.631,23.085,25.289,23.337,25.639z M24.366,25.732h-0.467v-0.654
		c0.3-0.082,0.128,0.309,0.374,0.28C24.325,25.55,24.554,25.542,24.366,25.732z"></path>
      <path fill-rule="evenodd" clip-rule="evenodd" d="M30.821,18.623c-0.092-1.342-0.338-2.53-0.281-4.021
		c0.075-0.757-0.133-1.422,0-1.965c0.129-0.383-0.227-0.764,0-0.935c0.126-0.41,0.012-0.481-0.094-0.842
		c-0.192-0.243-0.415-0.456-0.842-0.468c-0.204-0.232-0.51-0.361-0.747-0.562c-0.596-0.276-1.039-0.708-1.591-1.029
		c-0.457-0.415-1.014-0.73-1.403-1.216c-0.555-0.349-0.939-0.868-1.59-1.122c-0.473-0.401-0.965-0.78-1.496-1.123
		c-0.42-0.454-1.058-0.688-1.591-1.028c-0.517-0.355-1.147-0.599-1.59-1.029C19,2.975,18.262,2.809,17.912,2.254
		c0.009-0.632,0.045-1.291-0.187-1.683c-0.356-0.299-0.679-0.63-1.403-0.562c-0.126,0.029-0.18,0.133-0.374,0.094
		c-0.899,0.566-1.524,1.408-1.778,2.619c-0.507,0.396-1.108,0.699-1.684,1.028C11.105,5.082,9.495,6.186,7.81,7.212
		c-1.683,1.029-3.142,2.284-4.864,3.274c-0.449,0.189-0.797-0.1-1.215,0.094c-0.486,0.979-0.575,2.354-0.655,3.741
		c0.145,5.124,0.103,10.435,0.28,15.527c-0.111,0.798,0.183,1.19,0.469,1.59c0.39,0.181,0.512,0.147,0.935,0
		c0.243,0.193,0.675,0.198,1.123,0.188c2.497,0.216,5.392,0.033,8.044,0.094c0.489-0.072,0.969-0.153,1.497-0.188
		c0.832,0.105,1.764,0.107,2.713,0.094c0.417,0.081,0.766,0.231,1.215,0.28c0.869-0.057,1.549,0.073,2.338,0.094
		c1.353-0.083,2.594-0.275,4.023-0.28c1.333,0.133,2.841,0.089,4.302,0.093c0.729-0.27,1.704-0.291,2.526-0.467
		c0.074-0.398,0.157-0.836,0.187-1.311c0.032-0.496-0.023-0.998,0-1.496c0.062-0.438,0.146-0.851,0.187-1.31
		C30.87,24.373,31.013,21.332,30.821,18.623z M15.105,1.693c0.178-0.208,0.417-0.529,0.749-0.655
		c0.123-0.046,0.414-0.115,0.562-0.093c0.016,0.002,0.371,0.201,0.467,0.28c0.122,0.099,0.195,0.267,0.281,0.374v0.842
		c-0.248,0.446-0.901,0.844-1.497,0.655c0.021,0.007-0.177-0.088-0.187-0.094C15.131,2.758,15.072,2.395,15.105,1.693z M7.342,8.709
		c0.864-0.539,1.73-1.076,2.619-1.591c0.835-0.567,1.63-1.175,2.433-1.777c0.632-0.771,1.62-1.187,2.526-1.683
		c0.502,0.121,0.901,0.346,1.589,0.28c0.531-0.062,0.768-0.419,1.029-0.749c0.08-0.017,0.089,0.037,0.093,0.094
		c0.742,0.725,1.498,1.434,2.526,1.871c1.038,0.396,1.84,1.027,2.713,1.59c0.872,0.562,1.723,1.146,2.525,1.777
		c0.675,0.76,1.626,1.243,2.525,1.777c-0.13,0.213-0.651,0.035-0.935,0.094h-2.807c-1.178-0.162-2.62-0.062-3.742-0.281
		c-1.782,0.102-3.414-0.134-5.237,0c-0.948,0.07-2.607-0.064-3.835,0.094c-0.344-0.061-0.36,0.203-0.655,0.188H4.723
		C5.572,9.807,6.518,9.318,7.342,8.709z M3.132,11.328c2.416,0.204,5.197,0.041,7.765,0.093c1.639-0.153,3.596-0.435,5.332-0.187
		c1.985-0.008,3.492-0.028,5.144,0.187c1.578-0.386,3.933,0.006,5.425-0.467c0.642-0.019,1.172,0.075,1.403,0.467h0.749
		c0.382-0.044,0.014,0.252-0.093,0.281c-0.166,0.084-0.274,0.226-0.468,0.28c-0.209,0.259-0.587,0.349-0.748,0.654
		c-0.36-0.075-0.455-0.417-0.936-0.373c-7.1-0.086-13.738,0.292-20.672,0.373c-0.423,0.17-1.212-0.027-1.497,0.281
		c-0.462-0.067-0.441-0.619-0.748-0.842c-0.161-0.12-0.368-0.193-0.375-0.468C3.23,11.652,2.935,11.356,3.132,11.328z
		 M26.517,28.258c-3.064,0.308-6.009-0.193-9.167-0.094c-1.908-0.211-3.792-0.447-5.985-0.373c-1.931,0.158-3.83,0.348-5.987,0.28
		c0.047-1.387-0.126-2.555-0.281-3.741v-5.52c0-1.796-0.11-3.604,0-5.237c-0.007-0.133-0.014-0.266,0.093-0.281
		c7.038,0.333,13.981-0.001,21.421,0.094c0.006,2.516,0.209,5.024,0,7.483C26.376,23.336,26.651,25.752,26.517,28.258z
		 M2.384,11.889c-0.018,0.106-0.094,0.052-0.093,0C2.308,11.783,2.385,11.838,2.384,11.889z M2.665,29.568
		c-0.269,0.011-0.163,0.398-0.468,0.374c-0.127-0.62-0.092-1.404-0.093-2.151c0.158-0.291-0.026-0.943,0.188-1.217
		c0.052-0.065,0.191-0.062,0.188-0.187c0.044-0.356-0.434-0.19-0.282-0.655c0.17-4.444,0.051-9.178,0.375-13.469
		C2.65,12.246,2.66,12.3,2.665,12.357c0.3,0.167,0.32,0.615,0.562,0.842c0.074,0.393,0.5,0.434,0.562,0.842
		c-0.372,0.283-0.065,1.244-0.281,1.684c-0.012,2.68-0.136,5.045,0,7.67c0.231,1.452,0.311,3.057,0.281,4.77
		c-0.045,0.518-0.475,0.648-0.749,0.937C2.976,29.317,2.729,29.351,2.665,29.568z M23.525,30.598
		c-1.468,0.273-3.031,0.315-4.679,0.187c-1.607-0.126-3.257-0.07-4.862,0c-0.941,0.042-1.835-0.126-2.713,0
		c-0.429,0.086-0.452-0.233-0.841-0.187c-2.382,0.08-4.895,0.031-7.203,0.187c0.154-0.438,0.523-0.661,0.749-1.029
		c0.357-0.204,0.511-0.611,0.936-0.748c0.721,0.089,1.423,0.197,2.151,0.28c1.594-0.062,3.27-0.093,4.957-0.093
		c1.7,0,3.353,0.024,4.864,0c1.54-0.171,3.247-0.094,4.958-0.094c1.683,0,3.35,0.071,4.864-0.094
		c0.052-0.135,0.146-0.229,0.281-0.28c0.075,0.018,0.093,0.094,0.187,0.093c0.334,0.289,0.675,0.573,0.936,0.936
		c0.216,0.1,0.324,0.296,0.468,0.468c0.123,0.147,0.348,0.329,0.374,0.562C27.367,30.496,25.366,30.626,23.525,30.598z
		 M29.699,26.762c-0.129,0.807-0.153,1.719-0.281,2.525c0.016,0.41-0.316-0.088-0.375-0.187c-0.273-0.007-0.347-0.214-0.467-0.374
		c-0.416-0.146-0.708-0.414-1.029-0.655c0.058-1.438,0.064-2.93,0.188-4.304c-0.108-2.748-0.413-6.125,0-8.791
		c-0.007-0.398-0.156-0.655-0.093-1.123c0.096-0.402,0.474-0.523,0.841-0.654c0.177-0.322,0.573-0.425,0.842-0.655
		c0.083-0.042,0.167-0.082,0.187-0.187c0.079-0.018,0.09,0.036,0.093,0.093c0.127,1.707-0.322,3.702,0.095,5.332V26.762z"></path>
      <path fill-rule="evenodd" clip-rule="evenodd" d="M15.854,23.675h-0.281c-0.542,0.814-0.007,2.729,0.935,2.058
		c-0.061-0.312-0.291-0.457-0.374-0.748C16.012,24.578,16.108,23.952,15.854,23.675z"></path>
      <path fill-rule="evenodd" clip-rule="evenodd" d="M8.839,18.718c0.075,0.454,0.498,0.562,0.749,0.841
		c0.459,0.129,1.13,0.129,1.59,0c0.711-0.369,1.295-1.574,1.029-2.711c-0.004-0.017-0.076-0.026-0.094-0.095
		c-0.07-0.28-0.163-0.196-0.187-0.468c-0.501-0.496-1.242-0.754-2.338-0.654c-0.058,0.005-0.111,0.014-0.094,0.094H9.307
		c-0.291,0.146-0.491,0.383-0.749,0.561c-0.177,0.447-0.413,0.835-0.374,1.497C8.312,18.184,8.489,18.537,8.839,18.718z
		 M10.897,16.566c0.385,0.246,0.648,0.611,0.654,1.029c0.006,0.363-0.175,0.55-0.374,0.748c-0.062,0.061-0.117,0.238-0.187,0.279
		c-0.365,0.217-0.982,0.239-1.403,0.095c-0.148-0.259-0.261-0.55-0.375-0.843C9.223,16.889,9.719,16.387,10.897,16.566z"></path>
    </g>
  </g>
  <g id="share" data-iconmelon="Jolly Icons:73228090e98742ae5a64156e9548558c">
    <path fill-rule="evenodd" clip-rule="evenodd" d="M26.933,21.553c-0.124-0.031-0.206-0.076-0.291-0.098
	c-0.124-0.03-0.204-0.074-0.29-0.096c-0.479-0.12-0.742-0.049-1.258-0.097c-0.215-0.021-0.455-0.104-0.676-0.097
	c-0.285,0.01-0.552,0.183-0.872,0.097c-0.402,0.242-0.899,0.39-1.257,0.677c-0.217,0.105-0.484,0.16-0.677,0.29
	c-0.311,0.045-0.342,0.368-0.678,0.388c-0.7-0.592-1.554-1.025-2.225-1.645c-0.452-0.193-0.84-0.451-1.161-0.773
	c-0.452-0.193-0.84-0.451-1.16-0.774c-0.877-0.414-1.537-1.044-2.419-1.452c-0.293-0.352-0.807-0.482-1.16-0.773
	c-0.367-0.277-0.913-0.377-1.161-0.773c0.097-0.259,0.199-0.51,0.193-0.871c0.199-0.446,0.789-0.5,1.063-0.869
	c0.49-0.188,0.777-0.579,1.258-0.775c0.282-0.363,0.796-0.494,1.064-0.871c0.481-0.195,0.768-0.585,1.257-0.773
	c0.696-0.625,1.522-1.122,2.322-1.644c0.362-0.314,0.798-0.557,1.16-0.871c0.556-0.122,0.932-0.424,1.161-0.87
	c0.299,0.475,0.819,0.729,1.258,1.063c0.669,0.169,1.344,0.333,2.129,0.388c0.815-0.11,1.529-0.189,2.127-0.484
	c0.601-0.295,1.031-0.74,1.451-1.161c0.42-0.419,0.868-0.868,1.161-1.45c0.311-0.619,0.417-1.312,0.483-2.128
	c-0.041-0.475-0.13-0.903-0.192-1.354c-1.365-2.264-3.551-4.167-7.353-3.676c-0.083,0.143-0.243,0.208-0.483,0.193
	c-1.09,1.006-1.748,2.445-1.935,4.353c-0.703,0.489-1.458,0.929-2.129,1.452c-0.806,0.418-1.442,1.008-2.32,1.354
	c-0.271,0.342-0.781,0.444-1.064,0.773c-0.474,0.139-0.721,0.505-1.161,0.678c-0.31,0.303-0.755,0.471-1.064,0.773
	c-0.439,0.173-0.687,0.538-1.161,0.678c-0.397-0.408-0.969-0.644-1.451-0.968C8.4,9.163,7.33,9.009,6.039,9.074
	C6.02,9.218,5.805,9.163,5.651,9.171C5.569,9.314,5.409,9.378,5.167,9.364C4.856,9.601,4.565,9.858,4.2,10.041
	c-1.084,1.141-1.911,2.537-2.224,4.45c-0.023,1.118,0.07,2.122,0.192,3.095c0.689,2.116,2.248,3.364,5.128,3.289
	c0.853-0.113,1.559-0.375,2.127-0.773c-0.087,0.604,0.178,0.854,0.484,1.064c0.515,0.212,0.723-0.086,1.161-0.193
	c0.344,0.237,0.573,0.587,0.967,0.773c0.287,0.293,0.559,0.602,0.968,0.774c0.179,0.401,0.68,0.481,0.87,0.869
	c0.465,0.116,0.586,0.575,1.063,0.678c0.237,0.345,0.64,0.522,0.968,0.774c0.332,0.249,0.635,0.525,1.064,0.678
	c0.266,0.313,0.696,0.464,1.063,0.676c0.374,0.24,0.864,0.361,1.259,0.581v2.418c0.212,0.336,0.326,0.77,0.579,1.063
	c0.227,0.355,0.538,0.625,0.871,0.871c0.574,0.555,1.524,0.733,2.516,0.871h1.741c2.682-0.51,4.542-1.842,5.029-4.547V25.52
	c-0.15-1.107-0.685-1.831-1.16-2.612C28.317,22.479,27.601,21.72,26.933,21.553z M24.999,8.203c0.059-0.232,0.139-0.441,0.096-0.773
	c0.342,0.014,0.276,0.434,0.388,0.677C25.249,8.067,25.272,8.283,24.999,8.203z M24.127,2.786c0.19-0.202,0.073-0.643,0-0.87
	c1.768,0.038,2.495,1.117,3.482,1.935c0.096,0.323,0.308,0.531,0.388,0.87c0.067,1.23-0.591,1.732-1.064,2.418
	c-0.442,0.204-0.649,0.642-1.162,0.774c-0.234-0.57-0.41-1.2-0.677-1.741c-0.294-0.004-0.376,0.205-0.579,0.291
	c0.009,0.116-0.142,0.059,0,0c0.155-0.484,0.104-1.066-0.194-1.354c-0.295-0.07-0.284,0.167-0.58,0.097
	c0.189-0.681,0.48-1.261,0.87-1.741C24.57,3.118,24.368,2.933,24.127,2.786z M23.933,7.719c0.19,0.045,0.175,0.68-0.192,0.484
	C23.782,8.02,23.949,7.961,23.933,7.719z M11.842,11.782c0.306,0.017,0.323-0.257,0.677-0.192c0.202,0.055,0.276,0.239,0.581,0.192
	c0.555-0.154,0.842-0.576,0.87-1.258c0.994-0.554,1.809-1.286,2.902-1.741c0.348-0.426,1.023-0.523,1.354-0.967
	c0.514-0.228,0.986-0.496,1.354-0.87h0.29c0.028,0.456,0.396,0.571,0.483,0.967h-0.773c-0.759,0.337-1.357,0.835-2.031,1.258
	c-0.581,0.482-1.301,0.827-1.838,1.354c-0.382,0.167-0.694,0.401-0.967,0.678c-0.436,0.081-0.533,0.499-0.968,0.58
	c-0.188,0.359-0.658,0.438-0.871,0.774c-0.391,0.125-0.532,0.499-0.966,0.58C12.015,12.577,11.798,12.311,11.842,11.782z
	 M5.072,18.94c0.05-0.143,0.143-0.243,0.192-0.387c0.226,0.065,0.26,0.321,0.484,0.387C5.633,19.201,5.245,18.94,5.072,18.94z
	 M6.522,19.038c0.133-0.255,0.408-0.367,0.483-0.678c0.161,0.098,0.104,0.411,0.194,0.58C7.074,19.074,6.779,19.037,6.522,19.038z
	 M10.101,14.297c0.017,0.341-0.326,0.318-0.388,0.581c-0.029,0.386-0.004,0.715,0.194,0.87c-0.299,1.12-0.757,2.082-1.548,2.709
	c-0.43-0.764-0.305-2.082-0.968-2.611c-0.38,0.168-0.867,0.229-1.063,0.58c-0.158-0.066-0.032-0.182,0-0.29
	c0.029-0.098,0.051-0.237,0.097-0.388c0.017-0.051,0.185-0.252,0.193-0.289c0.027-0.123-0.021-0.264,0-0.388
	c-0.107-0.312-0.308-0.53-0.774-0.483c0.033-0.354,0.384-0.391,0.291-0.87c-0.091-0.379-0.488-0.083-0.773-0.098
	c0.26-0.545,0.965-0.646,1.16-1.257c0.006-0.588-0.411-0.751-0.871-0.871c0.212-0.24,0.563-0.34,0.774-0.58
	c1.23-0.07,2.231,0.089,2.998,0.483c0.088,0.171,0.217,0.3,0.388,0.387c0.043,0.247,0.136,0.445,0.29,0.581V14.297z M13.1,20.875
	c-0.583-0.218-0.05-0.912-0.097-1.45c0.202,0.119,0.376,0.267,0.58,0.387C13.49,20.233,13.249,20.508,13.1,20.875z M14.067,21.553
	c0.139-0.313,0.244-0.66,0.291-1.064c0.359,0.254,0.188,1.037,0.387,1.451C14.426,21.902,14.317,21.656,14.067,21.553z
	 M19.871,24.551c-0.197,0.207-0.383-0.026-0.579-0.097c-0.151-0.14-0.453-0.128-0.581-0.29c-0.404,0.022-0.457-0.157-0.773,0
	c-0.379-0.395-0.968-0.58-1.354-0.967c-0.59-0.184-0.851-0.697-1.451-0.871c0.183-0.524-0.038-0.997-0.097-1.547
	c0.082-0.019,0.091,0.037,0.097,0.096c0.905,0.546,1.77,1.133,2.611,1.742c0.413,0.296,0.877,0.541,1.258,0.869
	C19.346,23.779,20.196,23.89,19.871,24.551z M21.419,28.711c-0.338-0.05-0.143-0.632-0.194-0.967
	C21.604,27.977,21.643,28.303,21.419,28.711z M27.998,27.938c-0.067,0.112-0.099,0.115-0.194,0.193
	c-0.032,0.025,0.025,0.158,0,0.193C27.63,28.552,27.301,28.807,27.03,29c-0.307,0.22-0.672,0.459-1.064,0.484
	c-0.206-0.343-0.32-0.775-0.58-1.063c0.131-0.285,0.12-0.599-0.097-0.774c-1.036-0.012-1.526,1.431-0.968,2.129
	c0.369,0.166,0.604-0.287,0.678-0.097c0.013,0.399-0.675,0.101-0.968,0.193c-0.384-0.036-0.927,0.088-1.16-0.097
	c-0.034-0.903,0.411-1.33,0.579-2.031c0.185-0.269,0.265-0.639,0.483-0.871c0.181-0.271,0.432-0.473,0.485-0.871
	c0.006-0.33-0.359-0.286-0.678-0.289c0.149-0.625,0.655-0.894,0.87-1.451c-0.107-0.449-0.782-0.599-1.257-0.388
	c0.009,0.117-0.142,0.06,0,0c0.346-0.37,0.782-0.612,1.354-0.677c0.693-0.077,1.854,0.074,2.031,0.289
	c0.023,0.029,0.159-0.017,0.194,0c0.115,0.058,0.211,0.258,0.387,0.195c0.415,0.424,0.756,0.92,1.063,1.45
	C28.464,26.342,28.334,27.358,27.998,27.938z"></path>
  </g>
  <g id="smartphone" data-iconmelon="Jolly Icons:b481e941dbca66ef22509654f1dbfa97">
    <path fill-rule="evenodd" clip-rule="evenodd" d="M6.702,18.703c-0.136,1.189-0.09,2.54-0.09,3.864c0,1.344-0.073,2.676,0.09,3.863
	c-0.029,0.96-0.005,1.857,0.18,2.515c0.145,0.154,0.271,0.328,0.269,0.629c0.425,0.383,0.716,0.902,1.259,1.167
	c0.518,0.32,1.08,0.598,1.707,0.809c0.07,0.02,0.177,0.003,0.18,0.09c1.75,0.077,3.433,0.221,5.121,0.359
	c1.757-0.069,3.396-0.256,5.301-0.18c0.102-0.197,0.593-0.006,0.628-0.27c0.315,0.017,0.296-0.303,0.539-0.359
	c0.28-0.32,0.935-0.263,1.348-0.45c0.361-0.717,1.124-1.032,1.526-1.707c0.512-2.414,0.272-5.568,0.451-8.086
	c0.117-2.817,0.257-5.613,0.358-8.446c-0.125-2.269-0.103-4.688-0.269-6.917c-0.006-0.725,0.272-1.166,0.179-1.976
	c-0.145-0.455-0.223-0.976-0.359-1.438c-0.417-0.662-0.933-1.223-1.617-1.618c-0.642-0.166-1.403-0.214-2.246-0.179
	c-0.392,0.122-0.531-0.057-0.899,0.089c-0.155-0.264-0.923,0.085-1.078-0.179c-1.604-0.072-2.999-0.355-4.762-0.271
	c-0.019,0.071-0.075,0.105-0.179,0.09c-1.06-0.012-2.104-0.007-2.964,0.18c-1.139-0.061-2.126,0.03-2.875,0.359
	c-0.02,0.069-0.076,0.104-0.18,0.089C8.043,1.118,7.488,1.222,7.42,1.812C7.073,2.155,6.898,2.668,6.702,3.161
	c0.05,2.559-0.27,5.152-0.27,7.727C6.432,13.529,6.561,16.131,6.702,18.703z M10.834,26.071c-0.16-0.066-0.013-0.164,0-0.27
	C10.994,25.867,10.847,25.964,10.834,26.071z M11.374,27.867c-0.208-0.271,0.199-0.695,0.268-0.988
	c0.163,0.011,0.19-0.11,0.361-0.09C11.847,27.203,11.455,27.38,11.374,27.867z M12.452,29.754c-0.041-0.08-0.079-0.161-0.18-0.18
	c-0.064-0.519,0.523-0.809,0.808-0.449C13.08,29.545,12.871,29.754,12.452,29.754z M12.812,26.879c0.001-0.087,0.11-0.07,0.179-0.09
	C12.988,26.877,12.88,26.859,12.812,26.879z M12.542,26.25c-0.251,0.079-0.444,0.214-0.719,0.27
	c-0.095-0.835,0.934-0.641,1.527-0.539C13.238,26.228,12.864,26.214,12.542,26.25z M14.877,29.754
	c-0.258-0.191-0.447-0.452-0.809-0.54c-0.055-0.244-0.178-0.42-0.359-0.539v-1.438c0.406-0.761,1.464-0.872,2.246-1.257
	c0.313,0.107,0.648,0.191,0.899,0.359c0.28,0.618,0.577,1.219,0.628,2.066C17.292,29.569,16.227,30.007,14.877,29.754z
	 M20.357,27.957c-0.151-0.443,0.124-1.321,0.719-0.988C20.985,27.446,20.886,27.916,20.357,27.957z M22.334,26.609V26.43
	c0.077,0.016,0.085-0.036,0.09-0.09C22.598,26.304,22.555,26.75,22.334,26.609z M9.396,9.27c0.022-0.488,0.214-0.805,0.27-1.258
	c-0.039-0.52,0.038-0.92,0.089-1.348C9.734,5.653,9.73,4.663,10.026,3.969c1.132-0.126,2.311-0.205,3.504-0.27
	c1.096-0.161,2.451-0.062,3.683-0.089c0.154,0.019,0.232-0.154,0.27,0c1.327-0.146,3.256-0.152,4.582,0
	c0.306,0.674,0.18,1.613,0.18,2.515V8.82c0.01,1.756,0.25,3.285,0.45,4.852c-0.436,2.769-0.458,5.952-0.45,9.164
	c-0.26,0.369-0.643,0.616-0.899,0.989c-1.897,0.049-3.998-0.105-5.75,0.09c-1.027-0.069-1.778,0.137-2.784,0.09
	c-0.38,0.1-0.855,0.103-1.349,0.089c-0.504,0.025-0.967,0.01-1.167-0.269c-0.301-0.028-0.358-0.301-0.449-0.539
	c-0.158-0.172-0.191-0.469-0.27-0.719c-0.205-1.088-0.036-2.186-0.09-3.325c-0.003-0.073-0.101-0.089-0.09-0.18
	c0.021-0.159,0.014-0.108,0-0.449C9.275,15.661,9.487,12.436,9.396,9.27z M9.218,30.114c0.188-0.039,0.237,0.061,0.359,0.089
	c0.095,0.335-0.189,0.29-0.27,0.45C9.061,30.651,9.093,30.229,9.218,30.114z M7.69,27.957C7.582,27.967,7.635,27.827,7.69,27.957
	c0.156-0.007,0.279,0.021,0.359,0.09C8.025,28.259,7.714,28.039,7.69,27.957z M7.69,26.071c0.046,0.046-0.065,0.115-0.091,0.089
	C7.553,26.114,7.664,26.046,7.69,26.071z M7.42,26.43c0.208,0.271,0.032,0.926,0.09,1.347C6.894,27.68,7.231,26.746,7.42,26.43z"></path>
  </g>
  <g id="ornithology" data-iconmelon="Brainy Icons:fe0b44ad3260b50fe4a623f9412a5957">
    <path fill-rule="evenodd" clip-rule="evenodd" d="M31.993,19.722c0.038-0.745-0.104-1.468-0.372-2.16
	c-0.256-0.659-0.573-1.292-0.837-1.948c-0.618-1.535-1.651-2.787-2.757-3.973c-0.945-1.013-1.976-1.946-2.97-2.913
	c-0.085-0.082-0.165-0.181-0.267-0.23c-0.239-0.114-0.29-0.263-0.303-0.542c-0.029-0.613-0.178-1.22-0.253-1.833
	C24.178,5.651,24,5.277,23.55,5.068c-0.079-0.037-0.147-0.098-0.217-0.152c-0.915-0.72-1.981-0.878-3.093-0.763
	c-0.611,0.062-1.217,0.216-1.814,0.367c-0.486,0.123-0.953,0.315-1.361,0.619c-0.268,0.199-0.473,0.434-0.492,0.798
	c-0.013,0.233-0.092,0.462-0.124,0.695c-0.085,0.611-0.08,0.613-0.714,0.753c-0.142,0.031-0.285,0.068-0.43,0.074
	c-0.258,0.012-0.466-0.151-0.469-0.419c-0.01-0.878-0.434-1.507-1.136-1.978c-0.244-0.163-0.491-0.327-0.755-0.453
	c-0.182-0.086-0.393-0.142-0.593-0.151c-1.187-0.051-2.36,0.097-3.502,0.39C8.236,5.005,7.761,5.422,7.702,6.15
	C7.679,6.442,7.588,6.728,7.543,7.018C7.479,7.424,7.502,7.863,7.35,8.23c-0.165,0.398-0.502,0.723-0.74,1.095
	c-0.479,0.747-1.018,1.447-1.623,2.095c-0.101,0.108-0.193,0.224-0.283,0.341c-1.242,1.617-2.348,3.324-3.318,5.116
	c-0.209,0.385-0.349,0.812-0.487,1.229c-0.176,0.53-0.31,1.073-0.477,1.605c-0.292,0.931-0.555,1.861-0.346,2.853
	c0.018,0.085,0.003,0.177,0.007,0.265c0.062,1.523,0.787,2.692,1.969,3.595c0.744,0.57,1.623,0.794,2.535,0.961
	c1.2,0.22,2.365,0.107,3.47-0.345c2.251-0.92,3.923-2.47,4.865-4.748c0.045-0.109,0.091-0.219,0.151-0.319
	c0.02-0.032,0.104-0.061,0.135-0.045c0.228,0.115,0.516,0.116,0.643,0.417c0.091,0.212,0.254,0.395,0.398,0.581
	c0.495,0.639,1.639,0.996,2.534,0.273c0.232-0.188,0.465-0.369,0.6-0.64c0.364-0.729,0.349-0.579,1.106-0.594
	c0.177-0.003,0.354,0.002,0.531,0.008c0.131,0.005,0.223,0.074,0.247,0.201c0.05,0.261,0.104,0.521,0.126,0.785
	c0.081,0.932,0.455,1.756,0.881,2.572c0.847,1.625,2.867,2.774,5.121,2.197c0.756-0.193,1.437-0.523,2.087-0.933
	c1.474-0.93,2.612-2.193,3.581-3.625c0.318-0.47,0.555-0.975,0.682-1.525C31.889,21.017,32.033,20.383,31.993,19.722z M17.679,7.268
	c0.882-0.81,1.835-1.47,3.114-1.396c0.206,0.012,0.414-0.009,0.619,0.013c0.719,0.08,1.295,0.373,1.551,1.105
	c0.107,0.304,0.2,0.613,0.307,0.941c-0.03,0.067-0.05,0.15-0.1,0.204c-0.022,0.023-0.111-0.005-0.164-0.024
	c-0.082-0.03-0.16-0.074-0.24-0.112c-0.133-0.062-0.266-0.126-0.4-0.186c-0.961-0.424-1.943-0.432-2.931-0.12
	c-0.483,0.152-0.896,0.439-1.25,0.806c-0.061,0.062-0.13,0.121-0.205,0.162c-0.03,0.016-0.127-0.015-0.13-0.034
	c-0.033-0.229-0.078-0.437-0.234-0.637C17.434,7.76,17.475,7.455,17.679,7.268z M9.283,7.104c0.225-0.286,0.348-0.604,0.392-0.967
	c0.032-0.266,0.243-0.423,0.491-0.437c0.438-0.023,0.883-0.02,1.32,0.017c0.347,0.029,0.682,0.21,1.041,0.075
	c0.527,0.128,1.025,0.33,1.254,0.86c0.159,0.37,0.239,0.772,0.511,1.091c0.054,0.062-0.067,0.271-0.146,0.277
	c-0.059,0.004-0.117,0.007-0.173,0.011c-0.062-0.008-0.121-0.01-0.178-0.024c-0.93-0.219-1.875-0.171-2.818-0.17
	c-0.53,0.001-1.061,0-1.58,0.144c-0.112,0.032-0.225-0.078-0.235-0.2C9.142,7.546,9.124,7.306,9.283,7.104z M11.723,20.989
	c-0.387,1.385-1.213,2.479-2.281,3.403c-0.447,0.386-0.947,0.699-1.471,0.979C7.2,25.783,6.365,26,5.512,26.013
	c-1.045,0.016-2.051-0.226-2.889-0.923c-0.303-0.252-0.532-0.541-0.582-0.955c-0.031-0.262-0.115-0.517-0.175-0.775
	c-0.054-0.229-0.132-0.456-0.155-0.688c-0.027-0.263-0.007-0.531-0.007-0.796c0.003,0,0.005,0,0.007,0c0-0.236,0-0.472,0.001-0.708
	c0.003-0.371,0.085-0.7,0.436-0.908c0.072-0.043,0.142-0.119,0.175-0.196c0.229-0.547,0.699-0.856,1.138-1.207
	c0.46-0.367,0.901-0.76,1.334-1.16c0.241-0.224,0.503-0.403,0.801-0.542c0.979-0.455,2.003-0.677,3.086-0.636
	c0.478,0.019,0.936,0.122,1.384,0.263c0.923,0.292,1.438,0.981,1.74,1.859C12.078,19.435,11.939,20.212,11.723,20.989z
	 M20.263,16.104c-0.305,0.57-0.583,1.158-0.833,1.755c-0.32,0.767-0.467,1.578-0.537,2.405c-0.023,0.277-0.105,0.353-0.393,0.351
	c-0.295-0.002-0.59-0.024-0.885-0.036c-0.177-0.008-0.354-0.025-0.529-0.016c-0.223,0.014-0.393,0.131-0.482,0.337
	c-0.07,0.162-0.109,0.338-0.188,0.496c-0.091,0.183-0.187,0.372-0.319,0.524c-0.317,0.366-0.81,0.295-1.013-0.136
	c-0.061-0.132-0.075-0.284-0.129-0.421c-0.15-0.38-0.393-0.501-0.766-0.383c-0.196,0.062-0.387,0.143-0.581,0.21
	c-0.333,0.116-0.408,0.054-0.323-0.319c0.27-1.176,0.01-2.28-0.453-3.353c-0.14-0.323-0.37-0.61-0.498-0.937
	c-0.284-0.73-0.916-0.933-1.577-1.104c-0.284-0.074-0.6-0.077-0.856-0.203c-0.336-0.166-0.68-0.168-1.031-0.195
	c-1.578-0.127-3.04,0.242-4.412,1.017c-0.188,0.106-0.354,0.309-0.61,0.232c-0.003,0.004-0.005,0.009-0.007,0.013
	c-0.016,0.006-0.03,0.014-0.045,0.021c-0.014,0.023-0.026,0.046-0.04,0.069c0.003-0.019-0.001-0.045,0.01-0.055
	c0.009-0.007,0.02-0.009,0.03-0.014c0.008-0.014,0.016-0.028,0.023-0.042c0.01,0.004,0.019,0.004,0.028,0.007
	c0.416-0.771,0.838-1.539,1.247-2.313c0.178-0.336,0.448-0.54,0.809-0.632c0.457-0.116,0.908-0.252,1.388-0.248
	c0.358,0.004,0.701-0.078,1.013-0.267c0.124-0.075,0.144-0.312,0.018-0.375C8.14,12.4,7.951,12.315,7.756,12.266
	c-0.169-0.043-0.352-0.032-0.527-0.049c-0.028-0.002-0.055-0.021-0.082-0.033c0.037-0.021,0.071-0.056,0.109-0.06
	c0.353-0.031,0.707-0.048,1.059-0.087c0.291-0.032,0.582-0.077,0.87-0.137c0.194-0.041,0.317-0.207,0.32-0.373
	c0.004-0.198-0.089-0.358-0.258-0.428c-0.243-0.101-0.5-0.171-0.757-0.229c-0.141-0.032-0.295,0.001-0.441-0.016
	c-0.074-0.009-0.143-0.063-0.213-0.098c0.081-0.026,0.163-0.073,0.245-0.074c0.501-0.008,1.003-0.019,1.491,0.137
	c0.168,0.054,0.345,0.082,0.52,0.108c0.146,0.023,0.391-0.115,0.445-0.235c0.062-0.133,0.02-0.396-0.09-0.497
	c-0.219-0.204-0.463-0.365-0.768-0.41c-0.146-0.022-0.293-0.038-0.437-0.07C9.125,9.69,9,9.61,9.035,9.488
	C9.06,9.399,9.185,9.294,9.28,9.275c1.108-0.216,2.228-0.211,3.348-0.123c0.265,0.02,0.526,0.071,0.788,0.114
	c0.126,0.021,0.183,0.152,0.112,0.277c-0.174,0.308-0.351,0.614-0.536,0.916c-0.479,0.785-0.842,1.62-1.095,2.505
	c-0.091,0.317-0.129,0.635-0.088,0.961c0.024,0.188,0.13,0.329,0.299,0.411c0.104,0.051,0.222,0.078,0.332,0.118
	c0.508,0.188,0.813,0.064,0.931-0.448c0.224-0.98,0.583-1.916,0.914-2.86c0.096-0.277,0.233-0.54,0.355-0.808
	c0.056-0.124,0.148-0.148,0.285-0.125c0.258,0.045,0.52,0.075,0.781,0.094c0.205,0.015,0.414-0.008,0.619,0.006
	c0.692,0.049,0.849,0.162,1.049,0.828c0.201,0.674,0.488,1.33,0.471,2.057c-0.002,0.083,0.033,0.175,0.076,0.25
	c0.181,0.315,0.25,0.655,0.294,1.011c0.029,0.231,0.106,0.461,0.188,0.681c0.063,0.173,0.204,0.285,0.392,0.325
	c0.158,0.033,0.307,0.006,0.39-0.133c0.105-0.176,0.216-0.361,0.261-0.557c0.076-0.345,0.312-0.47,0.61-0.559
	c0.253-0.076,0.503-0.163,0.744-0.269c0.173-0.075,0.258-0.281,0.218-0.441c-0.05-0.193-0.189-0.295-0.372-0.332
	c-0.394-0.08-0.758,0.034-1.119,0.175c-0.222,0.087-0.341,0.031-0.407-0.16c-0.086-0.245-0.025-0.429,0.195-0.505
	c0.445-0.152,0.898-0.283,1.346-0.432c0.221-0.074,0.448-0.147,0.651-0.259c0.288-0.159,0.282-0.568,0.003-0.73
	c-0.126-0.073-0.27-0.116-0.402-0.18c-0.113-0.054-0.32,0.026-0.327-0.162c-0.003-0.067,0.179-0.132,0.261-0.213
	c0.176-0.173,0.156-0.361-0.021-0.533c-0.159-0.152-0.343-0.219-0.557-0.232c-0.542-0.034-1.055,0.072-1.553,0.282
	c-0.073,0.031-0.175,0.046-0.247,0.021c-0.179-0.062-0.29-0.577-0.151-0.69c0.58-0.475,1.213-0.82,1.99-0.856
	c0.665-0.031,1.293,0.057,1.875,0.396c0.152,0.09,0.309,0.173,0.468,0.25c0.314,0.151,0.606,0.156,0.911-0.067
	c0.229-0.168,0.312-0.14,0.462,0.003c0.724,0.693,1.442,1.392,2.173,2.078c0.541,0.508,1.02,1.064,1.417,1.691
	c0.095,0.149,0.226,0.278,0.301,0.436c0.079,0.166,0.342,0.237,0.256,0.487c-0.169-0.033-0.339-0.067-0.508-0.098
	c-0.231-0.042-0.463-0.089-0.696-0.122c-0.617-0.09-1.236-0.104-1.849,0.021c-0.722,0.147-1.442,0.297-2.156,0.475
	c-0.545,0.135-1.061,0.357-1.536,0.664C20.943,15.22,20.531,15.604,20.263,16.104z M18.749,11.525
	c0.003-0.026,0.011-0.062,0.028-0.075c0.387-0.275,0.81-0.442,1.282-0.429c0.063,0.024,0.116,0.044,0.17,0.064
	c-0.017,0.018-0.028,0.045-0.047,0.052c-0.456,0.18-0.912,0.358-1.369,0.532c-0.009,0.003-0.04-0.041-0.052-0.065
	C18.751,11.581,18.746,11.551,18.749,11.525z M30.411,20.684c-0.056,0.534-0.236,1.036-0.532,1.487
	c-0.967,1.476-2.143,2.738-3.703,3.609c-0.662,0.369-1.359,0.55-2.118,0.521c-0.953-0.037-1.71-0.444-2.238-1.225
	c-0.781-1.154-1.175-2.436-1.147-3.93c-0.02-1.235,0.32-2.47,0.96-3.63c0.162-0.294,0.372-0.514,0.657-0.694
	c1.034-0.656,2.165-1.112,3.35-1.338c1.333-0.254,2.592,0.014,3.537,1.12c0.151,0.178,0.279,0.378,0.402,0.579
	c0.125,0.2,0.195,0.442,0.347,0.615c0.42,0.479,0.521,1.048,0.527,1.648C30.456,19.858,30.453,20.273,30.411,20.684z M16.491,16.873
	c-0.372-0.248-0.818-0.36-1.262-0.302c-0.511,0.067-0.973,0.288-1.173,0.811c-0.091,0.238-0.093,0.51-0.135,0.767
	c0.015,0.002,0.028,0.005,0.043,0.007c0,0.117,0.007,0.235-0.002,0.352c-0.034,0.506,0.215,0.835,0.648,1.05
	c0.131,0.065,0.27,0.116,0.4,0.18c0.412,0.202,0.809,0.125,1.177-0.096c0.443-0.267,0.776-0.656,0.885-1.162
	C17.227,17.767,17.174,17.328,16.491,16.873z M15.964,18.253c-0.057,0.197-0.138,0.381-0.323,0.492
	c-0.047,0.027-0.125,0.058-0.157,0.038c-0.062-0.039-0.119-0.108-0.144-0.177c-0.027-0.078-0.016-0.17-0.021-0.261
	c0.014-0.082,0.023-0.168,0.043-0.251c0.023-0.101,0.225-0.178,0.368-0.147C15.886,17.98,16,18.127,15.964,18.253z M15.105,14.375
	c0.172,0.031,0.348,0.039,0.447,0.048c0.223,0,0.369-0.002,0.516,0.002c0.024,0,0.048,0.025,0.072,0.04
	c-0.025,0.016-0.048,0.042-0.074,0.047c-0.322,0.046-0.632,0.125-0.908,0.307c-0.09,0.06-0.11,0.22-0.046,0.316
	c0.146,0.217,0.353,0.328,0.604,0.281c0.287-0.054,0.571-0.134,0.847-0.232c0.236-0.084,0.287-0.383,0.119-0.583
	c-0.035-0.043-0.1-0.062-0.141-0.103c-0.116-0.117-0.104-0.178,0.034-0.257c0.15-0.085,0.309-0.162,0.444-0.266
	c0.108-0.083,0.109-0.298,0.012-0.403c-0.076-0.085-0.166-0.193-0.267-0.216c-0.624-0.139-1.23-0.083-1.791,0.244
	c-0.132,0.077-0.185,0.224-0.174,0.382C14.812,14.158,14.947,14.346,15.105,14.375z M15.331,13.124
	c0.462-0.048,0.921-0.133,1.378-0.217c0.078-0.015,0.15-0.087,0.217-0.142c0.201-0.165,0.199-0.423,0.018-0.613
	c-0.225-0.234-0.502-0.278-0.816-0.26c-0.414-0.018-0.794,0.111-1.131,0.371c-0.211,0.164-0.248,0.518-0.048,0.695
	C15.049,13.048,15.209,13.137,15.331,13.124z M25.597,24.051c-0.337-0.097-0.678-0.188-1.022-0.242
	c-0.838-0.128-1.258-0.486-1.434-1.318c-0.091-0.428-0.127-0.867-0.164-1.129c0.04-0.355,0.072-0.529,0.076-0.705
	c0.006-0.208-0.18-0.415-0.365-0.435c-0.22-0.024-0.422,0.08-0.514,0.266c-0.025,0.053-0.062,0.106-0.066,0.161
	c-0.045,0.669-0.197,1.323-0.066,2.012c0.256,1.344,1.055,2.152,2.397,2.309c0.501,0.059,0.929-0.083,1.255-0.486
	C25.815,24.331,25.779,24.104,25.597,24.051z M7.246,23.309c-0.289,0.025-0.578,0.09-0.861,0.164
	c-0.417,0.109-0.824,0.035-1.211-0.089c-0.559-0.179-0.995-0.539-1.137-1.128c-0.096-0.396-0.097-0.816,0.027-1.22
	c0.042-0.14,0.096-0.276,0.124-0.419c0.036-0.176-0.069-0.326-0.248-0.418c-0.153-0.077-0.292-0.046-0.406,0.055
	c-0.108,0.095-0.22,0.204-0.282,0.332c-0.395,0.789-0.502,2.083,0.271,2.987c0.657,0.768,1.483,1.124,2.558,1.094
	c0.413,0.034,0.865-0.084,1.27-0.344c0.141-0.09,0.264-0.234,0.347-0.379c0.091-0.158,0.086-0.364-0.055-0.491
	C7.543,23.362,7.376,23.298,7.246,23.309z"></path>
  </g>
</svg>