<?xml version="1.0" encoding="utf-8"?>
<!-- Generator: Adobe Illustrator 16.0.0, SVG Export Plug-In . SVG Version: 6.00 Build 0)  -->
<!DOCTYPE svg PUBLIC "-//W3C//DTD SVG 1.1//EN" "http://www.w3.org/Graphics/SVG/1.1/DTD/svg11.dtd">
<svg version="1.1" id="Layer_1" xmlns="http://www.w3.org/2000/svg" xmlns:xlink="http://www.w3.org/1999/xlink" x="0px" y="0px"
	 width="154.683px" height="57.999px" viewBox="0 0 154.683 57.999" enable-background="new 0 0 154.683 57.999"
	 xml:space="preserve">
<g>
	<g>
		<path fill="#FFFFFF" d="M82.087,20.104c-0.189-0.583-2.833-0.254-2.939-0.533c-0.082-0.379-0.198-2.492-0.177-2.644
			c-0.003-0.126,0.098-0.207,0.174-0.257c2.699-0.053,4.252-0.105,6.164-0.144c3.337,0.064,1.674,5.064,0.438,7.125
			c-1.525,1.509-3.539,2.794-6.578,2.393c-3.298-0.676-5.951-2.129-7.276-4.806c-2.655-4.28-0.052-10.828,3.812-12.761
			c0.553-0.315,2.915-0.793,3.038-0.924c3.722,0.058,7.66,0.826,8.219,4.763c-0.358,1.254-0.855,1.954-2.079,1.874
			c-1.733-0.093-2.131-0.852-2.93-1.37c-3.012-1.574-5.604,0.104-6.284,1.876c-0.466,2.301,0.252,5.216,2.255,5.996
			C79.027,21.257,81.82,22.173,82.087,20.104z"/>
		<path fill="#FFFFFF" d="M98.965,7.25c0-0.025,0-0.025,0.024-0.026c5.044-0.069,8.461,2.847,9.038,9.027
			c-0.025,2.727-0.946,5.318-2.691,7.362c-2.035,1.466-5.703,2.912-8.168,1.889c-2.125-0.546-3.4-2-4.672-3.125
			c-0.656-1.082-1.417-2.238-1.774-3.659c-0.249-6.389,2.464-9.907,7.913-11.462L98.965,7.25z M99.056,12.063
			c-2.63,1.068-3.794,2.798-3.963,4.762c0.659,3.761,4.356,5.346,6.898,3.643c1.595-1.865,1.959-4.217,0.579-7.146
			c-0.864-1.207-3.163-1.494-3.466-1.259L99.056,12.063z"/>
	</g>
	<path fill="#FFFFFF" d="M79.27,31.911c3.978-0.364,7.222,1.3,8.276,4.879c-0.521,1.269-1.117,2.075-2.342,2.241
		c-1.96-0.197-2.017-1.981-3.488-2.712c-4.188-1.167-5.957,2.202-6.073,5.819c0.586,2.349,2.355,3.616,5.235,3.675
		c1.886-0.108,1.658-2.681,3.646-2.841c1.223,0.013,1.748,0.986,2.401,1.631c-0.036,5.91-7.768,6.793-11.686,4.154
		c-1.948-1.447-3.71-3.173-4.21-6.262C71.621,37.05,73.457,32.434,79.27,31.911z"/>
	<path fill="#FFFFFF" d="M95.844,45.805c1.082,0.928,5.688-0.907,5.652,2.328c-0.025,2.369-2.88,2.313-5.422,2.08
		c-2.013-0.072-5.426-0.108-5.391-3.27c0.327-4.58-0.39-8.767,0.369-13.117c0.312-0.375,0.696-0.777,1.182-1.004
		c0.283,0.002,0.281-0.072,0.36-0.071c1.196,0.013,1.65,0.554,2,1.169C95.931,37.551,94.512,41.662,95.844,45.805z"/>
	<path fill="#FFFFFF" d="M107.168,45.815c0.256-2.647,0.294-6.062,0.093-8.587c-0.372-0.741-1.802-0.681-1.995-1.55
		c-0.223-0.562-0.368-1.151-0.214-1.581c0.085-0.737,0.527-1.318,1.266-1.565c0.153,0.204,0.155,0.001,0.309-0.175
		c3.077,0.745,7.625-0.658,7.175,3.211c-0.443,0.989-1.619,1.204-2.159,1.836c-0.127,2.392-0.167,5.809-0.089,8.254
		c0.527,0.668,2.262,0.457,2.687,1.276c0.068,0.562,0.292,1.149,0.208,1.813c-0.183,2.748-6.383,1.432-8.677,1.538
		c-0.583-0.467-1.112-1.06-1.021-2.28C104.917,46.605,106.17,46.262,107.168,45.815z"/>
	<path fill="#FFFFFF" d="M132.007,43.311c-2.044,0.561-1.545,3.982-4.024,4.744c-2.318-0.021-2.287-2.954-4.108-4.146
		c-0.586,2.337,1.15,6.636-2.236,6.727c-0.536-0.005-0.712-0.263-1.065-0.546c-0.355-0.311-0.529-0.695-0.729-1.053
		c-0.667-4.159-0.206-8.969-0.262-13.301c0.109-0.609,0.418-1.092,0.807-1.545c0.46-0.098,0.717-0.374,1.125-0.371
		c2.135,0.307,2.525,1.965,3.505,3.505c0.95,1.335,1.215,2.968,2.88,4.387c0.27-1.474,1.635-2.862,2.236-4.333
		c1.187-1.235,1.965-2.602,2.845-3.842c0.254,0.004,0.437-0.401,0.718-0.4c0.078,0.002,0.079-0.126,0.281-0.123
		c1.275-0.012,1.905,0.557,2.278,1.35c0.175,5.099,0.026,9.582,0.099,14.497c-0.138,0.993-0.658,1.802-1.727,1.917l-0.333-0.004
		C131.165,50.486,132.618,45.865,132.007,43.311z"/>
	<path fill="#FFFFFF" d="M143.995,32.791c5.431-0.07,10.033,0.439,9.974,5.967c-0.012,1.146-0.402,1.753-0.568,2.976
		c0.153,0.153,0.803,1.308,1.275,2.306c0.098,2.776-0.817,4.883-2.585,5.829c-2.583,0.917-7.503,1.245-10.037-0.106
		c-1.411-1.47-0.223-5.25-0.702-8.032c0.051-2.369,0.059-5.45,0.286-7.538L143.995,32.791z M145.992,38.952
		c0.914,0.468,3.479,1.056,3.649-0.546C149.508,36.645,144.336,36.588,145.992,38.952z M146.12,43.613
		c-0.613,0.326-0.632,1.855-0.206,2.547c1.015,0.444,3.791,0.474,4.366-0.719C150.3,43.328,147.982,43.432,146.12,43.613z"/>
</g>
<g>
	<path fill="#FFFFFF" d="M26.951,29.976c0.154,2.817,0.356,6.062,0.983,9.172c0.626-3.11,0.828-6.354,0.982-9.172
		c0.27-4.916,0.898-11.154-0.983-15.869C26.053,18.822,26.682,25.06,26.951,29.976z"/>
	<path fill="#FFFFFF" d="M17.456,34.64C17.33,34.974,17.391,34.867,17.456,34.64L17.456,34.64z"/>
	<path fill="#FFFFFF" d="M38.412,34.64C38.479,34.867,38.537,34.974,38.412,34.64L38.412,34.64z"/>
	<path fill="#FFFFFF" d="M38.3,33.453c-0.003-0.012-0.006-0.024-0.008-0.035c-0.005,0.028-0.012,0.074-0.012,0.141
		C38.29,33.514,38.295,33.48,38.3,33.453z"/>
	<path fill="#FFFFFF" d="M25.483,0.055C8.136,1.063-1.006,13.749,0.088,29.736s12.006,29.217,29.354,28.209
		C46.79,56.94,54.124,44.561,55.147,28.569C56.214,11.909,42.829-0.952,25.483,0.055z M40.725,23.266
		c-0.41,1.29-2.445,0.738-2.033-0.56c0.962-3.02,2.226-9.03-1.764-10.387c-2.265-0.77-5.562-1.767-7.584-0.267
		c2.482,4.157,1.837,11.727,1.767,15.455c-0.094,5.055-0.567,10.133-2.026,14.988c-0.038,0.129-0.08,0.266-0.123,0.406
		c0.535,1.484,1.22,2.876,2.113,4.095c0.994,1.888,2.551,1.837,4.671-0.151c0.171-1.104,0.237-2.213,0.199-3.328
		c-0.015-0.324-0.036-0.649-0.058-0.973c-0.68-0.282-1.204-0.897-1.192-1.859c0.017-1.695-0.194-3.365-0.387-5.048
		c-0.009-0.021-0.021-0.042-0.031-0.063c-0.234-0.598-0.364-2.092-0.149-2.71c0.147-0.427,0.422-0.767,0.758-1.02
		c-0.083-0.921-0.169-1.843-0.25-2.764c-0.119-1.354,1.988-1.343,2.107,0c0.07,0.783,0.161,1.583,0.262,2.392
		c0.558,0.193,1.021,0.64,1.188,1.392c0.039,0.179,0.063,0.37,0.1,0.554c0.01-0.043,0.016-0.035,0.008,0.035
		c0.457,2.338,0.633,4.906,0.608,7.242c-0.008,0.723-0.315,1.246-0.758,1.582c0.025,1.35-0.028,2.678-0.21,3.966
		c-0.435,3.079-2.374,4.979-5.569,4.464c-2.055-0.332-3.481-2.646-4.437-4.917c-0.955,2.271-2.383,4.585-4.438,4.917
		c-3.195,0.515-5.135-1.385-5.569-4.464c-0.181-1.288-0.235-2.616-0.21-3.966c-0.441-0.336-0.75-0.859-0.758-1.582
		c-0.024-2.336,0.152-4.904,0.61-7.242c-0.01-0.07-0.004-0.078,0.005-0.035c0.037-0.184,0.062-0.375,0.102-0.554
		c0.167-0.752,0.629-1.198,1.188-1.392c0.101-0.809,0.19-1.608,0.261-2.392c0.119-1.343,2.228-1.354,2.107,0
		c-0.082,0.921-0.167,1.843-0.249,2.764c0.334,0.253,0.608,0.593,0.757,1.02c0.216,0.618,0.085,2.112-0.149,2.71
		c-0.01,0.021-0.022,0.042-0.032,0.063c-0.19,1.683-0.402,3.353-0.385,5.048c0.01,0.962-0.514,1.577-1.192,1.859
		c-0.022,0.323-0.044,0.648-0.059,0.973c-0.037,1.115,0.028,2.225,0.2,3.328c2.119,1.988,3.676,2.039,4.671,0.151
		c0.894-1.218,1.577-2.61,2.112-4.094c-0.044-0.142-0.085-0.278-0.124-0.407c-1.459-4.855-1.931-9.934-2.025-14.988
		c-0.07-3.729-0.716-11.298,1.767-15.455c-2.022-1.5-5.32-0.503-7.583,0.267c-3.99,1.357-2.726,7.367-1.766,10.387
		c0.413,1.298-1.622,1.85-2.032,0.56c-1.066-3.355-1.667-7.556-0.071-10.847c1.234-2.545,6.336-3.106,8.727-3.246
		c1.757-0.104,3.101,0.366,4.135,1.215c1.035-0.849,2.38-1.318,4.137-1.215c2.389,0.14,7.491,0.701,8.727,3.246
		C42.392,15.71,41.791,19.911,40.725,23.266z"/>
	<path fill="#FFFFFF" d="M17.575,33.418c-0.002,0.011-0.003,0.023-0.005,0.035c0.002,0.027,0.009,0.061,0.018,0.105
		C17.588,33.492,17.581,33.446,17.575,33.418z"/>
	<path fill="#FFFFFF" d="M38.292,33.418c0.002,0.011,0.005,0.023,0.008,0.035C38.308,33.383,38.302,33.375,38.292,33.418z"/>
	<path fill="#FFFFFF" d="M17.57,33.453c0.002-0.012,0.003-0.024,0.005-0.035C17.566,33.375,17.561,33.383,17.57,33.453z"/>
</g>
</svg>
